<?xml version="1.0" encoding="UTF-8"?>
<svg version="1.1" xmlns="http://www.w3.org/2000/svg" width="310" height="316">
<path d="M0 0 C0.82419434 0.71349609 0.82419434 0.71349609 1.66503906 1.44140625 C33.10089332 28.89292834 47.52109192 65.99313395 51 107 C51.2996684 111.71509503 51.29299754 116.28587879 51 121 C50.95746094 121.72010254 50.91492188 122.44020508 50.87109375 123.18212891 C48.58149416 158.78099941 35.58430064 192.5538567 11.06640625 218.77734375 C9.2088233 220.77538666 7.48178749 222.83127197 5.75 224.9375 C-17.33180185 251.1214119 -53.22080754 264.51643922 -87.375 266.6875 C-89.91596619 266.80754565 -92.45768499 266.91308325 -95 267 C-96.50046875 267.061875 -96.50046875 267.061875 -98.03125 267.125 C-134.01792447 267.91591592 -167.84602509 253.26332612 -194 229 C-194.57878906 228.46503906 -195.15757812 227.93007813 -195.75390625 227.37890625 C-204.35814066 219.33218163 -211.65927343 210.92844757 -218 201 C-218.41733398 200.35192383 -218.83466797 199.70384766 -219.26464844 199.03613281 C-242.1367158 163.07452501 -249.7262414 119.08213951 -240.47827148 77.36694336 C-231.09929098 38.62503564 -205.8926737 4.76596503 -172.08789062 -16.18505859 C-149.95124288 -29.62984885 -149.95124288 -29.62984885 -139 -29 C-138.67 -29.99 -138.34 -30.98 -138 -32 C-134.5640523 -32.65427137 -131.12600185 -33.29679914 -127.6875 -33.9375 C-126.73037109 -34.11990234 -125.77324219 -34.30230469 -124.78710938 -34.49023438 C-79.61736118 -42.85500256 -34.59515908 -30.05048671 0 0 Z M-176 16 C-176.61359375 16.53141602 -177.2271875 17.06283203 -177.859375 17.61035156 C-201.95226403 38.70367591 -214.92960667 65.28165197 -219 97 C-220.97572078 134.76215571 -213.96176166 168.95771612 -190 199 C-188.38661202 201.21668477 -186.78366813 203.43998655 -185.19140625 205.671875 C-184.79824219 206.11015625 -184.40507812 206.5484375 -184 207 C-183.34 207 -182.68 207 -182 207 C-182 207.66 -182 208.32 -182 209 C-181.34 209 -180.68 209 -180 209 C-180 209.66 -180 210.32 -180 211 C-177.97690898 212.80167326 -175.95338363 214.47283883 -173.8125 216.125 C-172.85899658 216.86314941 -172.85899658 216.86314941 -171.88623047 217.61621094 C-146.21785315 237.19065695 -114.29735235 247.23260113 -82 243 C-49.98848496 238.35607599 -20.19301104 223.27153618 -0.51391602 196.97314453 C15.53347476 174.86369505 25.73602616 149.46270425 27 122 C27.05285156 120.92105469 27.10570312 119.84210938 27.16015625 118.73046875 C27.93805917 87.51288636 18.5627347 54.80516193 -2 31 C-2.65613281 30.21109375 -3.31226563 29.4221875 -3.98828125 28.609375 C-6.40125979 25.71798665 -6.40125979 25.71798665 -9 23 C-9.66 23 -10.32 23 -11 23 C-11 22.34 -11 21.68 -11 21 C-13.08779664 19.18596343 -15.18039292 17.48881105 -17.375 15.8125 C-18.01695312 15.31782227 -18.65890625 14.82314453 -19.3203125 14.31347656 C-21.2072436 12.86714387 -23.10239339 11.43228318 -25 10 C-25.87914062 9.32839844 -26.75828125 8.65679687 -27.6640625 7.96484375 C-71.12381884 -23.93955932 -136.00750429 -18.87440846 -176 16 Z " fill="#FBC312" transform="translate(253,44)"/>
<path d="M0 0 C0.7347757 -0.00191345 1.46955139 -0.0038269 2.22659302 -0.00579834 C3.77818139 -0.00715666 5.32978126 -0.0034849 6.88134766 0.00488281 C9.24277637 0.01555703 11.60343908 0.00499178 13.96484375 -0.0078125 C15.47656416 -0.00649024 16.98828411 -0.00392648 18.5 0 C19.20019257 -0.00404846 19.90038513 -0.00809692 20.62179565 -0.01226807 C24.94061435 0.02853146 28.33741047 0.82690479 32.3828125 2.265625 C32.38828094 3.98878181 32.38828094 3.98878181 32.39385986 5.74674988 C32.43093828 16.61809805 32.48885045 27.48916632 32.56671524 38.36030102 C32.60608075 43.94813837 32.63832267 49.5358207 32.65380859 55.1237793 C32.66904731 60.52509604 32.70362007 65.92598628 32.75112152 71.3271122 C32.76586122 73.37894274 32.77384922 75.4308342 32.77469635 77.48271751 C32.78510746 90.0652467 33.10671828 101.005874 39.01715088 112.42253113 C40.3828125 115.265625 40.3828125 115.265625 40.3828125 118.265625 C41.0634375 118.53375 41.7440625 118.801875 42.4453125 119.078125 C44.59090696 119.94549297 46.71346743 120.87046815 48.8203125 121.828125 C57.98644876 125.52674139 66.71430396 125.17563263 75.80078125 121.515625 C82.81901397 118.11799342 85.97215331 114.11019601 88.65625 106.828125 C90.34385157 100.87615388 90.53758991 95.13933487 90.55639648 89.00317383 C90.566427 87.63383446 90.566427 87.63383446 90.57666016 86.23683167 C90.59066483 84.26274232 90.60257329 82.28863722 90.61260796 80.3145237 C90.62906732 77.19210129 90.65230361 74.06979684 90.67750549 70.94743347 C90.74817111 62.07284439 90.808555 53.19820959 90.85961914 44.32348633 C90.89135914 38.88948439 90.93261092 33.45562279 90.97981453 28.02173424 C90.99585157 25.95046182 91.00816524 23.87915717 91.01672173 21.80784035 C91.02883771 18.91837864 91.05296833 16.0292493 91.07983398 13.13989258 C91.08042313 12.28113525 91.08101227 11.42237793 91.08161926 10.53759766 C91.13014483 6.61102435 91.15619313 4.60555406 93.3828125 1.265625 C96.19140625 0.75390625 96.19140625 0.75390625 99.8203125 0.578125 C100.47265869 0.54541504 101.12500488 0.51270508 101.79711914 0.47900391 C107.30143945 0.23545561 112.81117162 0.16826011 118.3203125 0.140625 C119.10011475 0.13587158 119.87991699 0.13111816 120.68334961 0.1262207 C134.28256559 0.16537809 134.28256559 0.16537809 136.3828125 2.265625 C136.48881493 5.22504406 136.52958745 8.16124749 136.52807617 11.12133789 C136.53143478 12.05163315 136.5347934 12.98192841 136.53825378 13.94041443 C136.54780842 17.03971673 136.54971021 20.1389651 136.55078125 23.23828125 C136.55399454 25.3957064 136.55735867 27.55313134 136.56086731 29.71055603 C136.56687249 34.25113427 136.56870617 38.79169346 136.56811523 43.33227539 C136.5680144 49.11173344 136.5815776 54.89106643 136.59888744 60.67049503 C136.61009536 65.1378992 136.61203164 69.60527419 136.61150551 74.07269096 C136.61267585 76.2002346 136.61704366 78.32777923 136.62483788 80.45530891 C136.70542329 104.75926381 135.51934349 129.63202508 118.09375 148.625 C114.42049941 152.14729509 110.4735351 155.2451496 106.3828125 158.265625 C105.5371875 158.89984375 104.6915625 159.5340625 103.8203125 160.1875 C89.14621897 170.40695799 67.92562219 172.38316695 50.3828125 171.265625 C49.03977185 170.97385332 47.70033325 170.65681287 46.3828125 170.265625 C46.3828125 169.605625 46.3828125 168.945625 46.3828125 168.265625 C45.2896875 168.348125 44.1965625 168.430625 43.0703125 168.515625 C29.06207646 168.46621323 16.85910198 158.57074998 7.3828125 149.265625 C6.31353516 148.23308594 6.31353516 148.23308594 5.22265625 147.1796875 C-6.72729214 134.79226509 -11.43571665 118.024557 -12.2109375 101.19140625 C-12.26977615 99.95417061 -12.26977615 99.95417061 -12.32980347 98.69194031 C-12.91850591 84.11666897 -12.76638317 69.51026431 -12.74755859 54.92602539 C-12.74181368 50.44345495 -12.74518408 45.9609438 -12.75113106 41.47837543 C-12.75475532 37.98922788 -12.75359035 34.50009426 -12.75100327 31.01094627 C-12.75034167 29.35768819 -12.75113524 27.7044288 -12.75348282 26.05117226 C-12.77376071 7.79760834 -12.77376071 7.79760834 -11.6171875 2.265625 C-7.93400906 -0.16226246 -4.27596836 -0.02458121 0 0 Z " fill="#FBC10C" transform="translate(94.6171875,78.734375)"/>
<path d="M0 0 C0.66 0.33 1.32 0.66 2 1 C-4.6 7.6 -11.2 14.2 -18 21 C-18.66 20.67 -19.32 20.34 -20 20 C-13.80204214 12.74707059 -7.44008593 5.98836185 0 0 Z " fill="#FCD868" transform="translate(66,38)"/>
</svg>
