<?xml version="1.0" encoding="UTF-8"?>
<svg version="1.1" xmlns="http://www.w3.org/2000/svg" width="1079" height="316">
<path d="M0 0 C0.82419434 0.71349609 0.82419434 0.71349609 1.66503906 1.44140625 C33.10089332 28.89292834 47.52109192 65.99313395 51 107 C51.2996684 111.71509503 51.29299754 116.28587879 51 121 C50.95746094 121.72010254 50.91492188 122.44020508 50.87109375 123.18212891 C48.58149416 158.78099941 35.58430064 192.5538567 11.06640625 218.77734375 C9.2088233 220.77538666 7.48178749 222.83127197 5.75 224.9375 C-17.33180185 251.1214119 -53.22080754 264.51643922 -87.375 266.6875 C-89.91596619 266.80754565 -92.45768499 266.91308325 -95 267 C-96.50046875 267.061875 -96.50046875 267.061875 -98.03125 267.125 C-134.01792447 267.91591592 -167.84602509 253.26332612 -194 229 C-194.57878906 228.46503906 -195.15757812 227.93007813 -195.75390625 227.37890625 C-204.35814066 219.33218163 -211.65927343 210.92844757 -218 201 C-218.41733398 200.35192383 -218.83466797 199.70384766 -219.26464844 199.03613281 C-242.1367158 163.07452501 -249.7262414 119.08213951 -240.47827148 77.36694336 C-231.09929098 38.62503564 -205.8926737 4.76596503 -172.08789062 -16.18505859 C-149.95124288 -29.62984885 -149.95124288 -29.62984885 -139 -29 C-138.67 -29.99 -138.34 -30.98 -138 -32 C-134.5640523 -32.65427137 -131.12600185 -33.29679914 -127.6875 -33.9375 C-126.73037109 -34.11990234 -125.77324219 -34.30230469 -124.78710938 -34.49023438 C-79.61736118 -42.85500256 -34.59515908 -30.05048671 0 0 Z M-176 16 C-176.61359375 16.53141602 -177.2271875 17.06283203 -177.859375 17.61035156 C-201.95226403 38.70367591 -214.92960667 65.28165197 -219 97 C-220.97572078 134.76215571 -213.96176166 168.95771612 -190 199 C-188.38661202 201.21668477 -186.78366813 203.43998655 -185.19140625 205.671875 C-184.79824219 206.11015625 -184.40507812 206.5484375 -184 207 C-183.34 207 -182.68 207 -182 207 C-182 207.66 -182 208.32 -182 209 C-181.34 209 -180.68 209 -180 209 C-180 209.66 -180 210.32 -180 211 C-177.97690898 212.80167326 -175.95338363 214.47283883 -173.8125 216.125 C-172.85899658 216.86314941 -172.85899658 216.86314941 -171.88623047 217.61621094 C-146.21785315 237.19065695 -114.29735235 247.23260113 -82 243 C-49.98848496 238.35607599 -20.19301104 223.27153618 -0.51391602 196.97314453 C15.53347476 174.86369505 25.73602616 149.46270425 27 122 C27.05285156 120.92105469 27.10570312 119.84210938 27.16015625 118.73046875 C27.93805917 87.51288636 18.5627347 54.80516193 -2 31 C-2.65613281 30.21109375 -3.31226563 29.4221875 -3.98828125 28.609375 C-6.40125979 25.71798665 -6.40125979 25.71798665 -9 23 C-9.66 23 -10.32 23 -11 23 C-11 22.34 -11 21.68 -11 21 C-13.08779664 19.18596343 -15.18039292 17.48881105 -17.375 15.8125 C-18.01695312 15.31782227 -18.65890625 14.82314453 -19.3203125 14.31347656 C-21.2072436 12.86714387 -23.10239339 11.43228318 -25 10 C-25.87914062 9.32839844 -26.75828125 8.65679687 -27.6640625 7.96484375 C-71.12381884 -23.93955932 -136.00750429 -18.87440846 -176 16 Z " fill="#FBC312" transform="translate(253,44)"/>
<path d="M0 0 C0.7347757 -0.00191345 1.46955139 -0.0038269 2.22659302 -0.00579834 C3.77818139 -0.00715666 5.32978126 -0.0034849 6.88134766 0.00488281 C9.24277637 0.01555703 11.60343908 0.00499178 13.96484375 -0.0078125 C15.47656416 -0.00649024 16.98828411 -0.00392648 18.5 0 C19.20019257 -0.00404846 19.90038513 -0.00809692 20.62179565 -0.01226807 C24.94061435 0.02853146 28.33741047 0.82690479 32.3828125 2.265625 C32.38828094 3.98878181 32.38828094 3.98878181 32.39385986 5.74674988 C32.43093828 16.61809805 32.48885045 27.48916632 32.56671524 38.36030102 C32.60608075 43.94813837 32.63832267 49.5358207 32.65380859 55.1237793 C32.66904731 60.52509604 32.70362007 65.92598628 32.75112152 71.3271122 C32.76586122 73.37894274 32.77384922 75.4308342 32.77469635 77.48271751 C32.78510746 90.0652467 33.10671828 101.005874 39.01715088 112.42253113 C40.3828125 115.265625 40.3828125 115.265625 40.3828125 118.265625 C41.0634375 118.53375 41.7440625 118.801875 42.4453125 119.078125 C44.59090696 119.94549297 46.71346743 120.87046815 48.8203125 121.828125 C57.98644876 125.52674139 66.71430396 125.17563263 75.80078125 121.515625 C82.81901397 118.11799342 85.97215331 114.11019601 88.65625 106.828125 C90.34385157 100.87615388 90.53758991 95.13933487 90.55639648 89.00317383 C90.566427 87.63383446 90.566427 87.63383446 90.57666016 86.23683167 C90.59066483 84.26274232 90.60257329 82.28863722 90.61260796 80.3145237 C90.62906732 77.19210129 90.65230361 74.06979684 90.67750549 70.94743347 C90.74817111 62.07284439 90.808555 53.19820959 90.85961914 44.32348633 C90.89135914 38.88948439 90.93261092 33.45562279 90.97981453 28.02173424 C90.99585157 25.95046182 91.00816524 23.87915717 91.01672173 21.80784035 C91.02883771 18.91837864 91.05296833 16.0292493 91.07983398 13.13989258 C91.08042313 12.28113525 91.08101227 11.42237793 91.08161926 10.53759766 C91.13014483 6.61102435 91.15619313 4.60555406 93.3828125 1.265625 C96.19140625 0.75390625 96.19140625 0.75390625 99.8203125 0.578125 C100.47265869 0.54541504 101.12500488 0.51270508 101.79711914 0.47900391 C107.30143945 0.23545561 112.81117162 0.16826011 118.3203125 0.140625 C119.10011475 0.13587158 119.87991699 0.13111816 120.68334961 0.1262207 C134.28256559 0.16537809 134.28256559 0.16537809 136.3828125 2.265625 C136.48881493 5.22504406 136.52958745 8.16124749 136.52807617 11.12133789 C136.53143478 12.05163315 136.5347934 12.98192841 136.53825378 13.94041443 C136.54780842 17.03971673 136.54971021 20.1389651 136.55078125 23.23828125 C136.55399454 25.3957064 136.55735867 27.55313134 136.56086731 29.71055603 C136.56687249 34.25113427 136.56870617 38.79169346 136.56811523 43.33227539 C136.5680144 49.11173344 136.5815776 54.89106643 136.59888744 60.67049503 C136.61009536 65.1378992 136.61203164 69.60527419 136.61150551 74.07269096 C136.61267585 76.2002346 136.61704366 78.32777923 136.62483788 80.45530891 C136.70542329 104.75926381 135.51934349 129.63202508 118.09375 148.625 C114.42049941 152.14729509 110.4735351 155.2451496 106.3828125 158.265625 C105.5371875 158.89984375 104.6915625 159.5340625 103.8203125 160.1875 C89.14621897 170.40695799 67.92562219 172.38316695 50.3828125 171.265625 C49.03977185 170.97385332 47.70033325 170.65681287 46.3828125 170.265625 C46.3828125 169.605625 46.3828125 168.945625 46.3828125 168.265625 C45.2896875 168.348125 44.1965625 168.430625 43.0703125 168.515625 C29.06207646 168.46621323 16.85910198 158.57074998 7.3828125 149.265625 C6.31353516 148.23308594 6.31353516 148.23308594 5.22265625 147.1796875 C-6.72729214 134.79226509 -11.43571665 118.024557 -12.2109375 101.19140625 C-12.26977615 99.95417061 -12.26977615 99.95417061 -12.32980347 98.69194031 C-12.91850591 84.11666897 -12.76638317 69.51026431 -12.74755859 54.92602539 C-12.74181368 50.44345495 -12.74518408 45.9609438 -12.75113106 41.47837543 C-12.75475532 37.98922788 -12.75359035 34.50009426 -12.75100327 31.01094627 C-12.75034167 29.35768819 -12.75113524 27.7044288 -12.75348282 26.05117226 C-12.77376071 7.79760834 -12.77376071 7.79760834 -11.6171875 2.265625 C-7.93400906 -0.16226246 -4.27596836 -0.02458121 0 0 Z " fill="#FBC10C" transform="translate(94.6171875,78.734375)"/>
<path d="M0 0 C8.94128532 9.65252393 15.46093898 20.63276953 15 34 C12.6122346 35.1938827 11.12020861 35.12917037 8.45703125 35.1328125 C7.09288086 35.13474609 7.09288086 35.13474609 5.70117188 35.13671875 C4.74791016 35.13285156 3.79464844 35.12898438 2.8125 35.125 C1.87857422 35.12886719 0.94464844 35.13273437 -0.01757812 35.13671875 C-10.84838646 35.12147483 -10.84838646 35.12147483 -15 34 C-16.71484375 31.7421875 -16.71484375 31.7421875 -17.9375 28.875 C-21.97495671 20.66159861 -27.51897941 15.80437966 -36.1640625 12.71875 C-48.46586374 9.60093812 -60.95562131 10.60903946 -72 17 C-82.5088837 24.40442448 -87.63012541 34.71799119 -90.75 46.9375 C-91.92552139 61.33763702 -89.43838499 74.02948535 -82.953125 86.9609375 C-82 89 -82 89 -82 91 C-81.34 91 -80.68 91 -80 91 C-80 91.66 -80 92.32 -80 93 C-78.70449219 93.41572266 -78.70449219 93.41572266 -77.3828125 93.83984375 C-73.09362231 95.31084777 -68.97025332 97.09290666 -64.8046875 98.87890625 C-55.64707444 102.53940061 -43.21249761 102.54003084 -33.875 99.375 C-31.3330525 98.28317672 -31.3330525 98.28317672 -29 97 C-27.89591797 96.41605469 -27.89591797 96.41605469 -26.76953125 95.8203125 C-22.10182367 92.86030281 -20.24347492 89.77827087 -18 84.75 C-15.40931373 79.21223675 -15.40931373 79.21223675 -11.625 77.25 C-9.60546875 77.02734375 -9.60546875 77.02734375 -7 77 C-5.10701172 76.94005859 -5.10701172 76.94005859 -3.17578125 76.87890625 C3.30913244 76.74959891 9.58821185 76.95777176 16 78 C15.36163105 93.00167034 8.36673463 104.56596824 -2.375 114.8359375 C-17.81046361 127.5610072 -37.31390362 132.09922366 -57 131 C-72.41158412 129.3086231 -85.45711252 124.20317765 -98 115 C-99.60875 113.8553125 -99.60875 113.8553125 -101.25 112.6875 C-114.44628875 99.7911269 -122.16626961 81.37680733 -123 63 C-123.0515625 62.30777344 -123.103125 61.61554688 -123.15625 60.90234375 C-123.95722778 41.44525849 -117.97537985 21.16795274 -105.4296875 6.21484375 C-104 5 -104 5 -101 5 C-100.89816406 4.40703125 -100.79632812 3.8140625 -100.69140625 3.203125 C-98.75114966 -2.97938751 -91.67795264 -6.33816208 -86.27392578 -9.1940918 C-58.33097489 -23.33559222 -24.21880593 -20.59552 0 0 Z " fill="#FBC210" transform="translate(780,106)"/>
<path d="M0 0 C0.86109375 0.00515625 1.7221875 0.0103125 2.609375 0.015625 C3.5065625 0.03625 4.40375 0.056875 5.328125 0.078125 C6.65070313 0.08585937 6.65070313 0.08585937 8 0.09375 C12.95058047 0.15268548 17.69713284 0.50129026 22.578125 1.328125 C23.42177827 6.40118889 23.69418068 11.28253656 23.61230469 16.42797852 C23.60441925 17.20630539 23.59653381 17.98463226 23.58840942 18.7865448 C23.5712975 20.46651407 23.5521042 22.14646319 23.53102875 23.82638741 C23.48865332 27.41901212 23.46542054 31.01168408 23.44099808 34.60446835 C23.39548546 41.27731284 23.34273463 47.94986737 23.25585938 54.62231445 C23.19596582 59.2793847 23.16136186 63.93607839 23.14267731 68.59348869 C23.13104552 70.35434295 23.11041219 72.11516464 23.08003998 73.87579536 C22.88893761 85.24663337 24.06157765 93.76196139 28.578125 104.328125 C28.92687683 105.42117447 29.27562866 106.51422394 29.63494873 107.64039612 C30.30375883 110.37942476 30.30375883 110.37942476 32.265625 111.515625 C33.02875 111.78375 33.791875 112.051875 34.578125 112.328125 C35.691875 112.84375 36.805625 113.359375 37.953125 113.890625 C48.10122121 117.91487005 58.45907998 116.98888536 68.578125 113.328125 C74.68903373 110.44562088 77.9668845 105.41577606 80.578125 99.328125 C83.5322553 89.73741034 82.91163792 79.49315747 82.95703125 69.57421875 C82.97322576 67.66275702 82.99040778 65.75130343 83.00852966 63.83985901 C83.05397041 58.8377558 83.08891669 53.83564152 83.12072754 48.83343506 C83.17285769 40.79595723 83.23759317 32.75859761 83.30894279 24.72126961 C83.33181567 21.91318473 83.34805122 19.10511526 83.36366272 16.29698181 C83.37705966 14.5904828 83.39067361 12.88398548 83.40454102 11.17749023 C83.40715439 10.39263245 83.40976776 9.60777466 83.41246033 8.7991333 C83.46447387 3.44177613 83.46447387 3.44177613 84.578125 2.328125 C89.05144458 2.07432266 93.5359596 2.14289779 98.015625 2.140625 C99.28212891 2.12837891 100.54863281 2.11613281 101.85351562 2.10351562 C103.06072266 2.10158203 104.26792969 2.09964844 105.51171875 2.09765625 C107.1831897 2.09149292 107.1831897 2.09149292 108.88842773 2.08520508 C111.578125 2.328125 111.578125 2.328125 113.578125 4.328125 C113.7766394 6.92988737 113.85087671 9.42518899 113.83691406 12.02807617 C113.8404187 12.82357376 113.84392334 13.61907135 113.84753418 14.43867493 C113.85637169 17.08290211 113.85048808 19.72686356 113.84375 22.37109375 C113.8450978 24.21560212 113.8470393 26.06011015 113.84954834 27.90461731 C113.85250374 31.78434609 113.84819505 35.66398305 113.83886719 39.54370117 C113.82757587 44.47689649 113.83396314 49.40987169 113.84601212 54.34305859 C113.85330856 58.16190689 113.8509057 61.98070483 113.84575653 65.79955482 C113.844436 67.61531921 113.84601075 69.43108839 113.85071564 71.24684715 C113.89416951 92.76715644 112.41255493 113.34031008 97.578125 130.328125 C81.77009798 143.47896229 62.8698117 147.61749259 42.578125 146.328125 C28.76365811 144.77091389 13.96489648 138.77014955 4.63671875 128.109375 C-8.22428512 110.01099846 -7.7793062 89.55545631 -8.109375 68.265625 C-8.12867065 67.15582275 -8.14796631 66.04602051 -8.16784668 64.90258789 C-8.42584688 49.70730311 -8.49123908 34.52260791 -8.171875 19.328125 C-8.15917572 18.52108124 -8.14647644 17.71403748 -8.13339233 16.88253784 C-8.09458524 14.63447967 -8.03552144 12.38800487 -7.96875 10.140625 C-7.93620117 8.88894531 -7.90365234 7.63726562 -7.87011719 6.34765625 C-7.421875 3.328125 -7.421875 3.328125 -6.1640625 1.42285156 C-3.95782023 0.03653004 -2.59774619 -0.03122032 0 0 Z " fill="#FBC20F" transform="translate(371.421875,90.671875)"/>
<path d="M0 0 C8.90080601 7.92054103 14.11116609 20.74271099 15.23291016 32.42578125 C16.26363749 50.9570203 12.88537759 65.7468673 1.04296875 80.42578125 C-8.58788272 91.05724066 -22.46352121 96.2860528 -36.57421875 97.2421875 C-51.36631848 97.53003377 -64.61115583 94.23673777 -76.1015625 84.55078125 C-78.04390392 82.852903 -78.04390392 82.852903 -80.8125 81.5625 C-84.22615917 79.12417202 -85.31367196 75.75303082 -87 72 C-87.87114499 70.31050669 -88.74625217 68.62305139 -89.625 66.9375 C-96.51424456 53.09561292 -96.81736818 36.48091486 -91.96484375 21.88671875 C-86.67394053 8.49784147 -78.47940445 -3.04741628 -65 -9 C-41.37464558 -16.89453237 -19.90998872 -16.73217293 0 0 Z M-59.625 18.25 C-67.00423614 26.79437869 -67.68675434 36.17860633 -67.18359375 47.046875 C-66.52039433 54.10218796 -63.04378898 60.18547416 -58 65 C-50.2319528 70.04505431 -41.18809029 72.11284323 -32 71 C-24.77315395 69.13424563 -20.18361555 65.07078995 -16 59 C-11.29370752 50.5909627 -10.59608486 40.25745032 -12.68359375 30.953125 C-15.18400685 23.44151055 -18.70256642 17.58063871 -25.75 13.6875 C-38.24807749 8.20921556 -49.19926097 9.31365226 -59.625 18.25 Z " fill="#FBC210" transform="translate(897,140)"/>
<path d="M0 0 C8.86515423 7.7032938 12.59066523 17.99495196 13.4140625 29.4765625 C13.49634938 31.19217587 13.56568444 32.90843889 13.625 34.625 C13.66077148 35.5941333 13.69654297 36.5632666 13.73339844 37.56176758 C14.07306935 48.52424188 14.16981039 59.49429945 14.23016357 70.46136475 C14.24336605 72.60857525 14.26129481 74.75576199 14.28399658 76.90289307 C14.31393434 79.96014644 14.32365961 83.01683482 14.328125 86.07421875 C14.34042145 87.00041519 14.3527179 87.92661163 14.36538696 88.88087463 C14.33585181 97.52807239 14.33585181 97.52807239 11 101 C8.38037109 101.58349609 8.38037109 101.58349609 5.2734375 101.5234375 C4.1596875 101.51183594 3.0459375 101.50023437 1.8984375 101.48828125 C0.73570313 101.45089844 -0.42703125 101.41351563 -1.625 101.375 C-3.38070313 101.35373047 -3.38070313 101.35373047 -5.171875 101.33203125 C-13.81843086 101.18156914 -13.81843086 101.18156914 -15 100 C-15.10786409 98.08434522 -15.14627908 96.16474878 -15.15771484 94.24609375 C-15.16797699 93.01391113 -15.17823914 91.78172852 -15.18881226 90.51220703 C-15.19225018 89.84884338 -15.1956881 89.18547974 -15.19923019 88.50201416 C-15.21101258 86.42425985 -15.23046894 84.34671405 -15.25234985 82.26904297 C-15.31394862 76.35960965 -15.36778863 70.4501913 -15.40136719 64.54052734 C-15.42244917 60.92763173 -15.45787165 57.31510584 -15.50212479 53.7024231 C-15.51619338 52.33110952 -15.52498636 50.95973041 -15.52817917 49.58834839 C-15.54827404 41.7751749 -16.04329081 35.24563952 -19 28 C-19.71147328 25.6773818 -20.35235853 23.34147302 -21 21 C-30.8346957 18.32955708 -39.18843712 16.78869217 -48.66796875 21.2578125 C-51.50679758 23.3786126 -52.14964053 24.91162125 -53.25 28.25 C-53.56453125 29.16265625 -53.8790625 30.0753125 -54.203125 31.015625 C-56.2320025 38.61397015 -56.11752645 46.00755697 -56.0625 53.828125 C-56.05871338 55.05408386 -56.05492676 56.28004272 -56.05102539 57.54315186 C-56.03884249 61.44547085 -56.02020414 65.34771479 -56 69.25 C-55.97347429 74.40103957 -55.95345997 79.5520431 -55.9375 84.703125 C-55.92920166 85.8906134 -55.92090332 87.07810181 -55.91235352 88.30157471 C-55.90905029 89.39991638 -55.90574707 90.49825806 -55.90234375 91.62988281 C-55.89448853 93.08047089 -55.89448853 93.08047089 -55.88647461 94.56036377 C-56 97 -56 97 -57 100 C-62.45073241 100.91088443 -67.72785797 101.18297365 -73.25 101.1875 C-74.05179688 101.19974609 -74.85359375 101.21199219 -75.6796875 101.22460938 C-81.64065754 101.23956164 -81.64065754 101.23956164 -85 99 C-85.37752342 97.15090179 -85.37752342 97.15090179 -85.38095093 94.8626709 C-85.3894104 93.99615402 -85.39786987 93.12963715 -85.40658569 92.23686218 C-85.400513 91.28406876 -85.39444031 90.33127533 -85.38818359 89.34960938 C-85.39344055 88.34791214 -85.39869751 87.3462149 -85.40411377 86.31416321 C-85.41735842 82.99053528 -85.40855976 79.66738312 -85.3984375 76.34375 C-85.40045695 74.04211332 -85.4033673 71.74047726 -85.40713501 69.43884277 C-85.41156443 64.61004558 -85.40510736 59.78141462 -85.39111328 54.95263672 C-85.37402121 48.7513684 -85.38385907 42.55048955 -85.40183067 36.34923553 C-85.41265177 31.59500168 -85.40922985 26.84086074 -85.4014473 22.08662415 C-85.39944066 19.79958551 -85.40192072 17.51253855 -85.40888596 15.22550964 C-85.41647284 12.03357477 -85.40493478 8.84227778 -85.38818359 5.65039062 C-85.39425629 4.6975972 -85.40032898 3.74480377 -85.40658569 2.76313782 C-85.39389648 1.4633625 -85.39389648 1.4633625 -85.38095093 0.1373291 C-85.37981985 -0.61778709 -85.37868877 -1.37290329 -85.37752342 -2.15090179 C-85 -4 -85 -4 -82 -6 C-79.046762 -6.17082455 -76.19981049 -6.23255338 -73.25 -6.1875 C-72.46367188 -6.18685547 -71.67734375 -6.18621094 -70.8671875 -6.18554688 C-66.14984366 -6.15028434 -61.65266432 -5.77751743 -57 -5 C-56.67 -1.7 -56.34 1.6 -56 5 C-55.34 5 -54.68 5 -54 5 C-53.88398437 4.10474609 -53.88398437 4.10474609 -53.765625 3.19140625 C-52.45156181 -0.56976441 -49.36227188 -1.71601376 -46.0234375 -3.60546875 C-30.54449974 -10.7449788 -14.22119338 -9.0662615 0 0 Z " fill="#FBC20F" transform="translate(1053,134)"/>
<path d="M0 0 C9.88643267 7.32865835 13.19723465 17.64232316 15.125 29.375 C15.71828039 35.04903348 15.62097053 40.73679998 15.55078125 46.43359375 C15.54584072 48.00016358 15.54255271 49.56673938 15.54081726 51.13331604 C15.53326519 54.37626765 15.51295788 57.61876381 15.48168945 60.86157227 C15.4416201 65.02445852 15.42399144 69.18705447 15.41438007 73.35011196 C15.40445149 77.33631178 15.38458916 81.32244088 15.36328125 85.30859375 C15.35818763 86.44749463 15.35818763 86.44749463 15.3529911 87.60940361 C15.34148075 89.73895773 15.32298292 91.86832348 15.30200195 93.99780273 C15.29215775 95.20863022 15.28231354 96.4194577 15.27217102 97.66697693 C15.125 100.375 15.125 100.375 14.125 101.375 C12.12535018 101.46258003 10.1226389 101.48196576 8.12109375 101.47265625 C6.29868164 101.46782227 6.29868164 101.46782227 4.43945312 101.46289062 C3.16005859 101.45451172 1.88066406 101.44613281 0.5625 101.4375 C-0.72076172 101.43298828 -2.00402344 101.42847656 -3.32617188 101.42382812 C-6.50916022 101.41199545 -9.69205762 101.39551068 -12.875 101.375 C-14.10225596 94.77797769 -13.93278111 88.30063227 -13.83203125 81.609375 C-13.80963934 79.0846433 -13.78818434 76.55990315 -13.76757812 74.03515625 C-13.73055219 70.08098258 -13.68753371 66.12724522 -13.62817383 62.17333984 C-13.57337671 58.33945555 -13.544506 54.50605485 -13.51953125 50.671875 C-13.49574905 49.5038031 -13.47196686 48.3357312 -13.44746399 47.13226318 C-13.4215174 38.91596722 -14.17199913 30.51267184 -19.87361145 24.14178467 C-24.11266596 20.39963449 -29.31904815 19.46461213 -34.875 19.375 C-40.69181768 19.99611782 -45.35442336 21.51597116 -49.875 25.375 C-53.73439848 32.35867344 -52.98151036 40.6627278 -52.90234375 48.38671875 C-52.88969249 50.77799332 -52.8773319 53.16926944 -52.86523438 55.56054688 C-52.84048664 59.30823675 -52.8125595 63.05584462 -52.77905273 66.8034668 C-52.74863703 70.43538907 -52.73100758 74.06720883 -52.71484375 77.69921875 C-52.70138412 78.80480637 -52.6879245 79.91039398 -52.67405701 81.04948425 C-52.67067825 82.11040787 -52.6672995 83.17133148 -52.66381836 84.2644043 C-52.65263222 85.63957466 -52.65263222 85.63957466 -52.64122009 87.04252625 C-52.97958547 91.8658395 -54.010059 96.61782448 -54.875 101.375 C-63.785 101.375 -72.695 101.375 -81.875 101.375 C-81.875 66.395 -81.875 31.415 -81.875 -4.625 C-73.625 -4.625 -65.375 -4.625 -56.875 -4.625 C-55.29227399 -3.04227399 -55.52764253 -1.24465997 -55.3125 0.9375 C-55.18681641 2.17693359 -55.18681641 2.17693359 -55.05859375 3.44140625 C-54.99800781 4.07949219 -54.93742188 4.71757812 -54.875 5.375 C-53.9675 4.488125 -53.06 3.60125 -52.125 2.6875 C-37.60681039 -9.81592044 -15.92336803 -9.5000433 0 0 Z " fill="#FBC20D" transform="translate(583.875,132.625)"/>
<path d="M0 0 C9.24 0 18.48 0 28 0 C28.77650943 3.10603773 29.12537398 5.13592312 29.12698364 8.22598267 C29.12980347 9.06159225 29.13262329 9.89720184 29.13552856 10.75813293 C29.13350433 11.66633286 29.1314801 12.57453278 29.12939453 13.51025391 C29.13114685 14.47322891 29.13289917 15.43620392 29.13470459 16.42835999 C29.13910571 19.61111249 29.13619167 22.79380943 29.1328125 25.9765625 C29.13348593 28.18565888 29.13445628 30.39475519 29.13571167 32.60385132 C29.13718619 37.23232733 29.13504153 41.86078404 29.13037109 46.48925781 C29.12466729 52.43251896 29.12795849 58.37573502 29.13394356 64.31899452 C29.13755009 68.87932681 29.13641027 73.43964833 29.13381577 77.99998093 C29.1331471 80.1921222 29.13397283 82.38426443 29.13629532 84.57640457 C29.13882406 87.63380794 29.13497838 90.69113732 29.12939453 93.74853516 C29.13141876 94.66078354 29.13344299 95.57303192 29.13552856 96.51292419 C29.11426515 102.77146971 29.11426515 102.77146971 28 105 C24.07671876 106.30776041 20.33715537 106.14471297 16.25 106.125 C15.07050781 106.13080078 15.07050781 106.13080078 13.8671875 106.13671875 C9.14085953 106.12886771 4.66113097 105.78516377 0 105 C-0.9043735 102.28687949 -1.1255147 100.73036348 -1.12698364 97.94569397 C-1.12980347 97.12276352 -1.13262329 96.29983307 -1.13552856 95.45196533 C-1.13350433 94.55266296 -1.1314801 93.6533606 -1.12939453 92.72680664 C-1.13114685 91.77694382 -1.13289917 90.82708099 -1.13470459 89.84843445 C-1.13911291 86.70232324 -1.13618844 83.55626805 -1.1328125 80.41015625 C-1.13348589 78.22684213 -1.13445621 76.04352809 -1.13571167 73.86021423 C-1.13718731 69.28123258 -1.13503858 64.70227041 -1.13037109 60.12329102 C-1.12467727 54.2508212 -1.12795148 48.37839712 -1.13394356 42.50592899 C-1.13755565 37.99612584 -1.13640753 33.48633355 -1.13381577 28.97653008 C-1.13314812 26.81116162 -1.13396927 24.64579219 -1.13629532 22.48042488 C-1.13883205 19.45445264 -1.13496659 16.4285546 -1.12939453 13.40258789 C-1.13141876 12.50530975 -1.13344299 11.60803162 -1.13552856 10.68356323 C-1.13270874 9.85781296 -1.12988892 9.03206268 -1.12698364 8.18128967 C-1.12660662 7.4661876 -1.12622959 6.75108553 -1.12584114 6.0143137 C-1 4 -1 4 0 0 Z " fill="#FBC314" transform="translate(923,129)"/>
<path d="M0 0 C0.91188131 2.73564392 1.12553235 4.32399013 1.12698364 7.13696289 C1.12980347 7.97816681 1.13262329 8.81937073 1.13552856 9.68606567 C1.13350433 10.60564056 1.1314801 11.52521545 1.12939453 12.47265625 C1.13114685 13.44363251 1.13289917 14.41460876 1.13470459 15.41500854 C1.13911286 18.63085711 1.13618869 21.84665086 1.1328125 25.0625 C1.13348583 27.29305024 1.13445611 29.5236004 1.13571167 31.75415039 C1.13718725 36.43148496 1.13503854 41.10880045 1.13037109 45.78613281 C1.1246739 51.78873717 1.12795364 57.79129682 1.13394356 63.79389954 C1.13755291 68.40059752 1.13640885 73.00728486 1.13381577 77.61398315 C1.13314754 79.8276266 1.1339713 82.041271 1.13629532 84.25491333 C1.13882794 87.3457496 1.13497255 90.43651293 1.12939453 93.52734375 C1.13141876 94.44691864 1.13344299 95.36649353 1.13552856 96.31393433 C1.13129883 97.5757402 1.13129883 97.5757402 1.12698364 98.86303711 C1.12660662 99.59380966 1.12622959 100.32458221 1.12584114 101.07749939 C1 103 1 103 0 106 C-5.45073241 106.91088443 -10.72785797 107.18297365 -16.25 107.1875 C-17.05179688 107.19974609 -17.85359375 107.21199219 -18.6796875 107.22460938 C-24.64065754 107.23956164 -24.64065754 107.23956164 -28 105 C-28.3719368 103.16931248 -28.3719368 103.16931248 -28.36749268 100.90736389 C-28.37306183 100.05070633 -28.37863098 99.19404877 -28.3843689 98.31143188 C-28.37515411 97.36956024 -28.36593933 96.4276886 -28.35644531 95.45727539 C-28.35848969 94.46693802 -28.36053406 93.47660065 -28.36264038 92.45625305 C-28.36565798 89.16986867 -28.34714053 85.88398133 -28.328125 82.59765625 C-28.32506875 80.32083765 -28.32319161 78.04401719 -28.32244873 75.76719666 C-28.31783936 70.98966342 -28.30339007 66.21229815 -28.28125 61.43481445 C-28.2529832 55.30325693 -28.24204075 49.17183197 -28.2375679 43.04021549 C-28.23341506 38.33656989 -28.22359843 33.63295124 -28.21169281 28.92931938 C-28.20598519 26.66822972 -28.20122811 24.40713745 -28.19742584 22.14604378 C-28.19056781 18.98802241 -28.17693694 15.83010682 -28.16113281 12.67211914 C-28.16001495 11.73227173 -28.15889709 10.79242432 -28.15774536 9.82409668 C-28.15203522 8.96461929 -28.14632507 8.10514191 -28.14044189 7.21961975 C-28.13746723 6.47279969 -28.13449257 5.72597963 -28.13142776 4.95652866 C-28 3 -28 3 -27 0 C-18.20381809 -1.40738911 -8.72130047 -2.06946113 0 0 Z " fill="#FBC416" transform="translate(644,128)"/>
<path d="M0 0 C3.20822964 2.51113283 5.08004553 4.97934549 5.95703125 8.92578125 C6.70436867 15.78026668 6.2463771 20.4266199 1.95703125 25.92578125 C-3.50351228 30.5553725 -8.76537789 30.53204077 -15.7890625 30.30859375 C-21.35972246 29.65322199 -23.69636481 27.34325908 -27.41796875 23.42578125 C-29.8160045 18.26078116 -29.7967841 13.52555245 -29.04296875 7.92578125 C-26.75635065 3.00075766 -23.76821946 0.52949082 -19.04296875 -2.07421875 C-12.88199711 -3.78559976 -5.68017249 -2.98670638 0 0 Z " fill="#FBC313" transform="translate(950.04296875,87.07421875)"/>
<path d="M0 0 C3.9614221 2.97106658 6.9035406 6.08562181 8.5 10.875 C8.86826224 16.49099916 8.71556007 20.05165989 5.5 24.875 C0.8766644 29.43669113 -2.27941883 31.0363619 -8.75 31.125 C-13.75875129 31.07529905 -17.36076491 30.95289276 -21.5 27.875 C-26.38107733 22.46623864 -26.8543966 19.01672868 -26.77734375 11.859375 C-26.28163673 6.52528816 -23.74917038 4.09214037 -20.0625 0.5 C-13.6924547 -2.4056347 -6.61530985 -2.12634959 0 0 Z " fill="#FBC312" transform="translate(639.5,86.125)"/>
<path d="M0 0 C0.66 0.33 1.32 0.66 2 1 C-4.6 7.6 -11.2 14.2 -18 21 C-18.66 20.67 -19.32 20.34 -20 20 C-13.80204214 12.74707059 -7.44008593 5.98836185 0 0 Z " fill="#FCD867" transform="translate(66,38)"/>
<path d="M0 0 C0.66 0.33 1.32 0.66 2 1 C-2.95 5.95 -7.9 10.9 -13 16 C-13 11.08924079 -9.30469813 8.39044878 -6 5 C-4.05397986 3.23549584 -2.07285289 1.6178364 0 0 Z " fill="#FCD661" transform="translate(825,135)"/>
<path d="M0 0 C0.66 0.33 1.32 0.66 2 1 C-0.64 3.64 -3.28 6.28 -6 9 C-6.33 8.34 -6.66 7.68 -7 7 C-2.25 1.125 -2.25 1.125 0 0 Z " fill="#FCD55B" transform="translate(621,86)"/>
<path d="M0 0 C0.99 0.33 1.98 0.66 3 1 C-0.465 3.97 -0.465 3.97 -4 7 C-3.04065919 3.16263678 -2.76390737 2.40339772 0 0 Z " fill="#FBD14B" transform="translate(927,87)"/>
<path d="M0 0 C0.33 0 0.66 0 1 0 C1 1.98 1 3.96 1 6 C0.67 6 0.34 6 0 6 C0 4.02 0 2.04 0 0 Z " fill="#FFC701" transform="translate(500,152)"/>
<path d="M0 0 C0.33 0 0.66 0 1 0 C1 1.65 1 3.3 1 5 C0.67 5 0.34 5 0 5 C0 3.35 0 1.7 0 0 Z " fill="#FEC501" transform="translate(500,224)"/>
</svg>
